<svg xmlns="http://www.w3.org/2000/svg" viewBox="0 0 512 512"><title>Recurso 1ldpi</title><g id="Capa_2" data-name="Capa 2"><g id="Capa_1-2" data-name="Capa 1"><path d="M256,221.87a59.73,59.73,0,1,0-59.73-59.73A59.8,59.8,0,0,0,256,221.87Zm0-102.4a42.67,42.67,0,1,1-42.67,42.67A42.72,42.72,0,0,1,256,119.47Z" style="fill:#807bf2"/><path d="M254.49,467.26,385.4,278.19c49.1-65.46,42-173.06-15.2-230.25a163.63,163.63,0,0,0-231.42,0c-57.2,57.19-64.3,164.79-15.39,230ZM150.84,60a146.58,146.58,0,0,1,207.29,0c51.63,51.62,58,148.8,13.42,208.2L254.49,437.27,137.23,267.95C92.86,208.79,99.23,111.62,150.84,60Z" style="fill:#807bf2"/><path d="M359.4,367a8.53,8.53,0,0,0-2,16.95c89.74,10.56,137.53,39,137.53,55.53,0,23.16-90.9,55.47-238.93,55.47S17.07,462.63,17.07,439.47c0-16.49,47.8-45,137.53-55.53a8.53,8.53,0,0,0-2-16.95C62.75,377.57,0,407.37,0,439.47,0,475.51,87.94,512,256,512s256-36.49,256-72.53C512,407.37,449.25,377.57,359.4,367Z" style="fill:#807bf2"/></g></g></svg>