<svg xmlns="http://www.w3.org/2000/svg" viewBox="0 0 496.79 496.79"><title>Recurso 1ldpi</title><g id="Capa_2" data-name="Capa 2"><g id="Capa_1-2" data-name="Capa 1"><path d="M355.27,413.88a7.39,7.39,0,0,0,10.71,2.5,205.41,205.41,0,0,0,87.44-168c0-113.06-92-205-205-205a203.89,203.89,0,0,0-78.15,15.43,7.38,7.38,0,0,0-3.66,10.36ZM311.82,303.76,231.09,156.27l80.73-44.15ZM248.4,58.11c104.92,0,190.28,85.36,190.28,190.28a190.61,190.61,0,0,1-74.5,151l-37.6-68.69v-.94a92.58,92.58,0,0,0,48.9-81.38,91.61,91.61,0,0,0-6.75-34.68,7.38,7.38,0,1,0-13.67,5.56,76.93,76.93,0,0,1,5.67,29.12,77.81,77.81,0,0,1-34.15,64.18V184.19a77.79,77.79,0,0,1,14.14,12.27,7.38,7.38,0,1,0,10.93-9.9A91.84,91.84,0,0,0,326.58,167V99.67a7.38,7.38,0,0,0-10.92-6.47L224,143.33,183.57,69.45A189.25,189.25,0,0,1,248.4,58.11Z" style="fill:#807bf2"/><path d="M424,72.75a248.48,248.48,0,0,0-414.22,245A7.38,7.38,0,0,0,24,313.67a233.61,233.61,0,1,1,9.65,26.91,7.38,7.38,0,0,0-13.56,5.83A248.43,248.43,0,1,0,424,72.75Z" style="fill:#807bf2"/><path d="M136.72,79.27a7.4,7.4,0,0,0-5.91,1.14,205.41,205.41,0,0,0-87.45,168c0,113.06,92,205,205,205A203.81,203.81,0,0,0,326.54,438a7.38,7.38,0,0,0,3.66-10.36L141.52,82.92A7.39,7.39,0,0,0,136.72,79.27ZM248.4,438.68c-104.92,0-190.28-85.36-190.28-190.28a190.62,190.62,0,0,1,74.5-151l32.16,58.76h-2.6A40.91,40.91,0,0,0,121.32,197V299.78a40.91,40.91,0,0,0,40.86,40.87h38.37l93.07,50.9,19.6,35.81A189.33,189.33,0,0,1,248.4,438.68ZM209.82,238.43l70.67,129.11-70.67-38.65Zm-14.76,87.46H162.18a26.14,26.14,0,0,1-26.11-26.11V197a26.14,26.14,0,0,1,26.11-26.11h10.67l22.2,40.57Z" style="fill:#807bf2"/></g></g></svg>