<svg xmlns="http://www.w3.org/2000/svg" viewBox="0 0 1191 608"><title>Recurso 2ldpi</title><g id="Capa_2" data-name="Capa 2"><g id="Capa_1-2" data-name="Capa 1"><rect width="1191" height="608" style="fill:#807bf2"/><path d="M904.49,225.47,911,214.85l-6.51-10.64c-1.09-1.78-27.29-44.06-78.19-86.44C758.61,61.42,678.86,31.63,595.67,31.63S432.56,61.4,364.47,117.73c-51.19,42.35-77.68,84.61-78.79,86.39L279,214.85l6.65,10.73c1.1,1.78,27.6,44,78.79,86.39,68.08,56.33,148,86.1,231.19,86.1s162.94-29.79,230.63-86.15C877.2,269.54,903.4,227.26,904.49,225.47ZM799.18,281.53c-60.9,50.32-129.37,75.83-203.51,75.83S452.8,331.84,391.49,281.49a384,384,0,0,1-63.74-66.64,384,384,0,0,1,63.74-66.65c61.31-50.35,130-75.88,204.17-75.88s142.61,25.51,203.51,75.83a379,379,0,0,1,63.26,66.69A379.06,379.06,0,0,1,799.18,281.53Z" style="fill:#fff"/><path d="M595.06,92.58A122.27,122.27,0,1,0,717.33,214.85,122.41,122.41,0,0,0,595.06,92.58Zm0,203.84a81.57,81.57,0,1,1,81.57-81.57A81.67,81.67,0,0,1,595.06,296.42Z" style="fill:#fff"/><path d="M320,482.69v12h20.43v15.77H320v28.12H301.38V466.92h41.14v15.77Z" style="fill:#fff"/><path d="M451.29,501.41c0,23.18-16.63,39.52-39.62,39.52s-39.62-16.34-39.62-39.52c0-21.66,19-36.86,39.62-36.86S451.29,479.75,451.29,501.41Zm-59.85.09c0,12.35,9.12,21.38,20.23,21.38s20.24-9,20.24-21.37c0-9.88-9.12-18.91-20.24-18.91S391.44,491.62,391.44,501.5Z" style="fill:#fff"/><path d="M533.94,491a20.21,20.21,0,0,0-16.34-7.88c-11.4,0-19.09,8.74-19.09,19.86,0,11.3,7.79,19.47,19.38,19.47a21.42,21.42,0,0,0,16.06-7.6v22.33c-6.18,1.9-10.64,3.32-16.44,3.32a39.88,39.88,0,0,1-26.88-10.54c-7.89-7.12-11.5-16.44-11.5-27.08a37.49,37.49,0,0,1,10.54-26.22A38.82,38.82,0,0,1,516.93,465a43.69,43.69,0,0,1,17,3.61Z" style="fill:#fff"/><path d="M630.36,466.92V507.2c0,9.21-.38,18.33-7.51,25.27-6,5.89-15.39,8-23.75,8s-17.76-2.09-23.75-8c-7.12-6.93-7.5-16.05-7.5-25.27V466.92h18.62v37.72c0,9.31.67,19.48,12.63,19.48s12.64-10.17,12.64-19.48V466.92Z" style="fill:#fff"/><path d="M704.27,485.35a19.59,19.59,0,0,0-12.35-4.75c-3.42,0-8,2-8,6,0,4.18,5,5.79,8.26,6.84l4.75,1.42c10,2.95,17.67,8,17.67,19.57,0,7.13-1.71,14.44-7.41,19.29s-13.11,6.75-20.33,6.75a44.2,44.2,0,0,1-25.17-8.17l8-15c4.66,4.08,10.17,7.41,16.53,7.41,4.37,0,9-2.19,9-7.22,0-5.22-7.32-7-11.31-8.17-11.68-3.33-19.38-6.37-19.38-20.24,0-14.54,10.36-24,24.7-24a49,49,0,0,1,22.42,5.89Z" style="fill:#fff"/><path d="M764.88,482.69v12h21v15.77h-21v12.35H787v15.77H746.26V466.92H787v15.77Z" style="fill:#fff"/><path d="M821.31,466.92h26.41c20,0,36.39,15.68,36.39,35.82s-16.53,35.81-36.39,35.81H821.31Zm18.62,55.86h4.18c11.12,0,20.62-6.08,20.62-20,0-12.83-8.46-20-20.43-20h-4.37Z" style="fill:#fff"/><path d="M628,171.7A46.08,46.08,0,1,0,565,238.8a33.06,33.06,0,0,1,11.47,24.83v23.25A16.14,16.14,0,0,0,592.54,303H598a16.14,16.14,0,0,0,16.12-16.12V263.93A32.83,32.83,0,0,1,625.32,239,46.08,46.08,0,0,0,628,171.7ZM598,296.51h-5.41a9.64,9.64,0,0,1-9.1-6.49h23.61A9.64,9.64,0,0,1,598,296.51Zm9.63-13H582.92v-4.77h24.66Zm0-11.26H582.92v-4.77h24.66Zm13.51-38.19A39.19,39.19,0,0,0,607.68,261h-.16a.93.93,0,0,1-.93.69H583.91A.93.93,0,0,1,583,261h-.15a39.67,39.67,0,0,0-13.6-27.09,39.59,39.59,0,1,1,51.86.16Z" style="fill:#fff"/></g></g></svg>