<svg xmlns="http://www.w3.org/2000/svg" viewBox="0 0 631.96 509.3"><title>Recurso 1ldpi</title><g id="Capa_2" data-name="Capa 2"><g id="Capa_1-2" data-name="Capa 1"><path d="M625.45,193.85,632,183.22l-6.51-10.64c-1.09-1.78-27.29-44.06-78.19-86.44C479.57,29.79,399.82,0,316.63,0S153.52,29.77,85.44,86.1C34.25,128.46,7.75,170.71,6.65,172.49L0,183.22l6.65,10.73c1.1,1.78,27.6,44,78.79,86.39,68.08,56.33,148,86.1,231.19,86.1s162.94-29.79,230.63-86.15C598.16,237.91,624.36,195.63,625.45,193.85ZM520.14,249.9c-60.9,50.32-129.37,75.83-203.51,75.83s-142.87-25.53-204.17-75.88a384,384,0,0,1-63.74-66.64,384,384,0,0,1,63.74-66.65c61.31-50.35,130-75.88,204.17-75.88s142.61,25.51,203.51,75.83a379,379,0,0,1,63.26,66.69A379.06,379.06,0,0,1,520.14,249.9Z" style="fill:#fff"/><path d="M316,60.95A122.27,122.27,0,1,0,438.29,183.22,122.41,122.41,0,0,0,316,60.95Zm0,203.84a81.57,81.57,0,1,1,81.57-81.57A81.67,81.67,0,0,1,316,264.79Z" style="fill:#fff"/><path d="M41,451.06v12H61.38V478.8H41v28.12H22.34V435.29H63.47v15.77Z" style="fill:#fff"/><path d="M172.25,469.78c0,23.18-16.63,39.52-39.62,39.52S93,493,93,469.78c0-21.66,19-36.86,39.62-36.86S172.25,448.12,172.25,469.78Zm-59.85.09c0,12.35,9.12,21.38,20.23,21.38s20.24-9,20.24-21.37c0-9.88-9.12-18.91-20.24-18.91S112.4,460,112.4,469.88Z" style="fill:#fff"/><path d="M254.9,459.33a20.21,20.21,0,0,0-16.34-7.88c-11.4,0-19.09,8.74-19.09,19.86,0,11.3,7.79,19.47,19.38,19.47a21.42,21.42,0,0,0,16.06-7.6V505.5c-6.18,1.9-10.64,3.32-16.44,3.32a39.88,39.88,0,0,1-26.88-10.54c-7.89-7.12-11.5-16.44-11.5-27.08A37.49,37.49,0,0,1,210.63,445a38.82,38.82,0,0,1,27.27-11.59,43.69,43.69,0,0,1,17,3.61Z" style="fill:#fff"/><path d="M351.32,435.29v40.28c0,9.21-.38,18.33-7.51,25.27-6,5.89-15.39,8-23.75,8s-17.76-2.09-23.75-8c-7.12-6.93-7.5-16.05-7.5-25.27V435.29h18.62V473c0,9.31.67,19.48,12.63,19.48S332.7,482.32,332.7,473V435.29Z" style="fill:#fff"/><path d="M425.23,453.72A19.59,19.59,0,0,0,412.88,449c-3.42,0-8,2-8,6,0,4.18,5,5.79,8.26,6.84l4.75,1.42c10,2.95,17.67,8,17.67,19.57,0,7.13-1.71,14.44-7.41,19.29s-13.11,6.75-20.33,6.75a44.2,44.2,0,0,1-25.17-8.17l8-15c4.66,4.08,10.17,7.41,16.53,7.41,4.37,0,9-2.19,9-7.22,0-5.22-7.32-7-11.31-8.17-11.68-3.33-19.38-6.37-19.38-20.24,0-14.54,10.36-24,24.7-24a49,49,0,0,1,22.42,5.89Z" style="fill:#fff"/><path d="M485.84,451.06v12h21V478.8h-21v12.35H508v15.77H467.22V435.29H508v15.77Z" style="fill:#fff"/><path d="M542.27,435.29h26.41c20,0,36.39,15.68,36.39,35.82s-16.53,35.81-36.39,35.81H542.27Zm18.62,55.86h4.18c11.12,0,20.62-6.08,20.62-20,0-12.83-8.46-20-20.43-20h-4.37Z" style="fill:#fff"/><path d="M349,140.07a46.08,46.08,0,1,0-63.08,67.1A33.06,33.06,0,0,1,297.39,232v23.25a16.14,16.14,0,0,0,16.12,16.12h5.41A16.14,16.14,0,0,0,335,255.25V232.31a32.83,32.83,0,0,1,11.26-24.94A46.08,46.08,0,0,0,349,140.07ZM318.91,264.88H313.5a9.64,9.64,0,0,1-9.1-6.49H328A9.64,9.64,0,0,1,318.91,264.88Zm9.63-13H303.88v-4.77h24.66Zm0-11.26H303.88v-4.77h24.66ZM342,202.45a39.19,39.19,0,0,0-13.4,26.93h-.16a.93.93,0,0,1-.93.69H304.87a.93.93,0,0,1-.93-.69h-.15a39.67,39.67,0,0,0-13.6-27.09,39.59,39.59,0,1,1,51.86.16Z" style="fill:#fff"/></g></g></svg>